<svg width="59" height="59" viewBox="0 0 59 59" fill="none" xmlns="http://www.w3.org/2000/svg">
    <g id="Group 427319607" filter="url(#filter0_d_426_2653)">
        <path id="Vector"
            d="M37.1166 29.6759C37.7245 29.6589 38.3329 29.6913 38.9359 29.7732C41.5429 30.0908 43.7563 32.2204 43.3296 36.0822C43.1032 38.246 42.2145 40.2873 40.785 41.9274C37.7785 45.3976 33.077 47.1239 28.2118 47.1239C23.52 47.1239 19.1224 45.5164 15.8257 42.3074C14.1767 40.7086 12.8682 38.7929 11.9789 36.6753C11.0896 34.5578 10.6378 32.2822 10.6507 29.9855L37.1166 29.6759ZM37.1166 29.6759C37.0567 29.618 36.9949 29.5607 36.9312 29.5042L36.7654 29.6913L36.7802 29.9409C36.8593 29.9362 36.9383 29.9323 37.0174 29.9293C39.6318 32.561 38.225 36.6526 35.8827 38.7963C34.1175 40.4115 32.0853 41.2474 28.545 41.2669L37.1166 29.6759ZM28.5436 41.0169H28.5436C22.4933 41.0512 17.4201 35.8883 17.4201 29.9855C17.4201 23.6646 22.2786 18.5137 28.2279 18.2701C30.2165 18.1896 33.7402 18.2439 36.7741 18.3187C38.2894 18.356 39.6801 18.3985 40.6919 18.4315C41.1978 18.4481 41.609 18.4623 41.8937 18.4723L42.2218 18.4841L42.3072 18.4872L42.329 18.4881L42.3345 18.4883L42.3358 18.4883L42.3362 18.4883C42.3362 18.4883 42.3363 18.4883 42.3456 18.2385L42.3363 18.4884L42.3425 18.4885C43.2283 18.4995 44.1075 18.3347 44.9291 18.0036C45.7508 17.6725 46.4986 17.1817 47.1292 16.5596L47.131 16.5578C48.3946 15.2857 49.1072 13.5677 49.1151 11.7747L49.1166 11.4224L48.7835 11.5373C48.7277 11.5566 48.618 11.5786 48.4434 11.5986C48.2739 11.618 48.0585 11.634 47.8009 11.6466C47.286 11.6717 46.6135 11.6828 45.8234 11.683C44.2438 11.6833 42.2052 11.6403 40.0395 11.581C38.4798 11.5383 36.8538 11.4871 35.2873 11.4379C32.5082 11.3505 29.9163 11.269 28.2144 11.2509L28.2144 11.2509C18.3754 11.1499 10.401 19.8229 10.4007 29.9848C10.3877 32.315 10.8461 34.6237 11.7484 36.7721C12.6508 38.9208 13.9785 40.8646 15.6516 42.4868C19.0001 45.7461 23.4625 47.3739 28.2118 47.3739C33.1312 47.3739 37.909 45.6286 40.9737 42.0914C42.4367 40.4127 43.3463 38.3235 43.5782 36.1089C43.7972 34.1247 43.3398 32.5589 42.4672 31.4445C41.5963 30.3321 40.3288 29.6914 38.9679 29.5252C38.2332 29.4256 37.4906 29.3977 36.7505 29.4418L36.1475 29.4777L36.5995 29.8784C37.999 31.119 38.366 32.7498 38.0899 34.3541C37.8123 35.9672 36.8842 37.5408 35.714 38.6119C34.003 40.1774 32.0346 40.9977 28.5436 41.0169Z"
            fill="#0A78C2" stroke="white" stroke-width="0.5" />
        <path id="Vector_2"
            d="M46.9826 20.923L46.9681 20.5802L46.6462 20.6991C46.5078 20.7501 46.1997 20.7937 45.7188 20.8211C45.2502 20.8478 44.6493 20.8581 43.9496 20.8567C42.5506 20.854 40.7711 20.8049 38.8927 20.7507C38.7647 20.747 38.6362 20.7432 38.5073 20.7395C34.8647 20.6341 30.9178 20.5198 28.7497 20.7C23.5228 21.1303 20.5791 25.87 20.5785 29.9828C20.5682 31.061 20.7731 32.1305 21.1813 33.1285C21.5897 34.1269 22.1933 35.0338 22.9567 35.7959C23.7201 36.558 24.628 37.16 25.6271 37.5667C26.6247 37.9727 27.6933 38.1758 28.7703 38.1641C29.8442 38.1916 30.9112 37.9852 31.8973 37.559L31.8973 37.5591L31.9037 37.5562C33.847 36.6509 34.8729 35.2383 35.0942 33.8088C35.3151 32.382 34.7268 30.9735 33.5154 30.1115L33.2409 29.9161L33.1335 30.2356C32.769 31.3203 31.7483 31.9098 30.6302 32.0662C30.0744 32.144 29.5089 32.1113 29.0159 31.984C28.5203 31.856 28.116 31.6373 27.8619 31.3587L27.8525 31.3483L27.8419 31.3391C27.4342 30.9819 27.1477 30.1684 27.3009 29.351C27.4486 28.5629 28.0077 27.7765 29.2946 27.4661L29.2946 27.4661C29.838 27.3349 30.7933 27.2656 31.9436 27.2396C33.0862 27.2138 34.3982 27.2309 35.6413 27.2655C36.8839 27.3 38.0554 27.3518 38.9163 27.395C39.3468 27.4165 39.6994 27.436 39.9444 27.45C40.0669 27.457 40.1625 27.4626 40.2274 27.4666L40.3012 27.471L40.32 27.4722L40.3248 27.4725L40.3259 27.4726L40.3262 27.4726L40.3419 27.2231L40.3263 27.4726L40.3341 27.4731H40.3419C42.1421 27.4731 43.802 27.0433 45.0347 25.8435L45.0352 25.843C45.6866 25.2053 46.1966 24.4377 46.5321 23.5901C46.8676 22.7425 47.0211 21.8338 46.9826 20.923Z"
            fill="#F7A20B" stroke="white" stroke-width="0.5" />
    </g>
    <defs>
        <filter id="filter0_d_426_2653" x="6.15039" y="11" width="47.2168" height="44.624" filterUnits="userSpaceOnUse"
            color-interpolation-filters="sRGB">
            <feFlood flood-opacity="0" result="BackgroundImageFix" />
            <feColorMatrix in="SourceAlpha" type="matrix" values="0 0 0 0 0 0 0 0 0 0 0 0 0 0 0 0 0 0 127 0"
                result="hardAlpha" />
            <feOffset dy="4" />
            <feGaussianBlur stdDeviation="2" />
            <feComposite in2="hardAlpha" operator="out" />
            <feColorMatrix type="matrix" values="0 0 0 0 0.352373 0 0 0 0 0.669077 0 0 0 0 0.888333 0 0 0 1 0" />
            <feBlend mode="normal" in2="BackgroundImageFix" result="effect1_dropShadow_426_2653" />
            <feBlend mode="normal" in="SourceGraphic" in2="effect1_dropShadow_426_2653" result="shape" />
        </filter>
    </defs>
</svg>